<svg width="24.000000000000004" height="24.000000000000004" xmlns="http://www.w3.org/2000/svg">

 <g>
  <title>background</title>
  <rect fill="none" id="canvas_background" height="402" width="582" y="-1" x="-1"/>
 </g>
 <g>
  <title>Layer 1</title>
  <path stroke-opacity="0.95" stroke="#ffffff" id="svg_1" stroke-width="2" stroke-linejoin="round" stroke-linecap="round" fill="none" d="m8.913847,19.823033c-5.624176,1.568484 -5.624176,-2.61414 -7.873846,-3.136968m15.747692,6.273937l0,-4.046689a3.790694,3.523861 0 0 0 -1.057345,-2.729162c3.531982,-0.36598 7.243938,-1.61031 7.243938,-7.319593a6.119103,5.688369 0 0 0 -1.687253,-3.92121a5.702914,5.301476 0 0 0 -0.101235,-3.942123s-1.327305,-0.36598 -4.398105,1.547571a15.050294,13.990878 0 0 0 -7.873846,0c-3.0708,-1.913551 -4.398105,-1.547571 -4.398105,-1.547571a5.702914,5.301476 0 0 0 -0.101235,3.942123a6.119103,5.688369 0 0 0 -1.687253,3.95258c0,5.667456 3.711956,6.911787 7.243938,7.319593a3.790694,3.523861 0 0 0 -1.057345,2.697793l0,4.046689"/>
 </g>
</svg>