<svg width="256" height="256" xmlns="http://www.w3.org/2000/svg">

 <g>
  <title>background</title>
  <rect fill="none" id="canvas_background" height="402" width="582" y="-1" x="-1"/>
 </g>
 <g>
  <title>Layer 1</title>
  <path stroke-miterlimit="10" stroke-linejoin="round" stroke-linecap="round" stroke-width="4" stroke="#000000" fill="none" id="svg_1" d="m128.1,222.073" class="st0"/>
  <path stroke="#ffffff" stroke-miterlimit="10" stroke-linejoin="round" stroke-linecap="round" stroke-width="8" fill="none" id="svg_2" d="m130.672388,253.317419c78.930479,-4.503202 134.191817,-65.904746 120.104189,-147.490307c-11.46966,-66.427609 -74.985005,-110.919041 -139.22029,-102.011386c-65.118232,9.029192 -115.207849,70.856116 -107.803447,138.115494c7.025291,60.587499 43.379224,88.911968 73.704423,101.705011c7.059867,2.978924 16.548764,7.323875 19.754539,6.619973c3.205775,-0.703902 2.177111,-18.926868 2.177111,-27.71172c-19.758244,3.113122 -26.519268,-4.862749 -30.717894,-9.574843c-4.762972,-5.345099 -7.563703,-10.840854 -12.4267,-18.911676s-13.661591,-6.171805 -14.587758,-10.840854s18.523353,-3.403038 32.493667,14.242626c10.111281,12.84495 20.904222,8.974754 26.704501,5.302055c0.190173,-2.04081 0.649552,-4.779192 1.775772,-7.834077c1.194139,-3.237191 4.476477,-5.19571 3.961528,-7.41123c-0.514949,-2.21552 -26.925547,-0.730488 -41.986268,-22.36662c-10.878148,-15.627642 -11.273313,-34.125332 -6.998123,-47.897002c2.867415,-9.238084 7.65138,-15.752978 10.907785,-19.518095c-1.248474,-2.737116 -3.103279,-7.734063 -3.189721,-14.242626c-0.093852,-7.025096 1.919019,-12.401846 3.189721,-15.192135c4.312237,0.131665 10.545963,0.815311 17.597186,3.376452c6.753615,2.452264 11.846302,5.750223 15.229901,8.334152c6.143579,-2.115505 15.087889,-4.417113 26.035191,-4.642463c12.515612,-0.257 22.652826,2.302874 29.226147,4.536118c3.230473,-2.957402 8.628178,-7.150431 16.2598,-10.023011c5.543422,-2.086386 10.518795,-2.821939 14.201238,-3.059949c1.41148,2.740914 3.797287,8.253127 3.910897,15.61245c0.104966,6.774426 -1.760953,11.989126 -2.983495,14.766755c3.54043,4.379133 9.130778,12.501861 11.733927,24.047883c0.927403,4.11327 5.997862,26.562181 -8.639292,45.880246c-15.322518,20.223263 -40.825471,17.121536 -41.976389,19.914356c-1.150918,2.792821 4.895105,7.972073 7.737822,18.834449c2.842717,10.862376 1.638699,31.623694 1.638699,31.623694" class="st0"/>
 </g>
</svg>